<svg width="79" height="79" xmlns="http://www.w3.org/2000/svg" xmlns:xlink="http://www.w3.org/1999/xlink" overflow="hidden"><defs><clipPath id="clip0"><rect x="155" y="224" width="79" height="79"/></clipPath></defs><g clip-path="url(#clip0)" transform="translate(-155 -224)"><path d="M229.885 234.583C225.376 233.924 221.944 235.406 220.183 239.051 218.175 243.166 219.122 247.28 220.595 251.601 221.656 255.46 223.302 261.673 223.302 264.734 223.302 268.232 221.245 270.906 217.13 270.495 212.193 269.993 207.362 263.911 198.203 263.911 191.62 263.911 189.151 266.38 184.214 270.495 179.276 274.609 174.339 280.37 170.224 281.193 166.109 282.016 163.369 281.259 161.995 278.724 160.76 276.436 160.349 273.786 161.995 268.849 162.696 266.828 163.521 264.852 164.464 262.932 164.599 262.665 164.492 262.338 164.225 262.202 163.988 262.082 163.699 262.151 163.542 262.364 162.628 263.5 161.748 264.693 161.172 265.557 159.526 268.026 157.403 272.346 157.88 277.078 158.3 281.25 160.349 283.661 163.641 285.307 166.932 286.953 175.161 287.776 181.745 283.661L182.156 283.661 182.156 290.656C182.156 292.02 183.262 293.125 184.625 293.125 185.988 293.125 187.094 292.02 187.094 290.656L187.094 283.661 187.209 283.661C191.449 284.893 195.846 285.494 200.26 285.447 201.676 285.447 203.05 285.381 204.375 285.283L204.375 290.656C204.375 292.02 205.48 293.125 206.844 293.125 208.207 293.125 209.312 292.02 209.312 290.656L209.312 284.641C209.88 284.534 210.423 284.419 210.958 284.295L210.958 290.656C210.958 292.02 212.064 293.125 213.427 293.125 214.791 293.125 215.896 292.02 215.896 290.656L215.896 282.97C219.138 282.04 224.306 280.032 227.005 276.255 230.544 271.318 227.713 261.904 226.182 257.748 225.68 256.102 225.096 254.456 224.536 252.901 222.833 248.202 221.36 244.137 223.138 240.458 223.549 239.635 224.948 237.784 229.351 238.623 230.474 238.798 231.532 238.046 231.737 236.928 231.82 235.785 231.017 234.767 229.885 234.583Z" fill="#0070C0"/><path d="M188.74 290.656C188.74 292.02 189.845 293.125 191.208 293.125 192.572 293.125 193.677 292.02 193.677 290.656L193.677 286.682C192.015 286.478 190.367 286.179 188.74 285.785Z" fill="#0070C0"/></g></svg>