<svg width="96" height="96" xmlns="http://www.w3.org/2000/svg" xmlns:xlink="http://www.w3.org/1999/xlink" overflow="hidden"><defs><clipPath id="clip0"><rect x="377" y="230" width="96" height="96"/></clipPath></defs><g clip-path="url(#clip0)" transform="translate(-377 -230)"><path d="M385 250 385 306 465 306 465 250 385 250ZM426.4 284.9C425.6 285.7 424.4 285.7 423.6 284.9L394 256 456.1 256 426.4 284.9ZM410.5 277.7 391 297.3 391 258.6 410.5 277.7ZM413.4 280.5 420.9 287.8C422.1 288.9 423.6 289.5 425.1 289.5 426.6 289.5 428.1 288.9 429.3 287.8L436.8 280.5 456.2 300 393.9 300 413.4 280.5ZM439.5 277.7 459 258.7 459 297.2 439.5 277.7Z" fill="#0070C0"/></g></svg>