<svg width="96" height="96" xmlns="http://www.w3.org/2000/svg" xmlns:xlink="http://www.w3.org/1999/xlink" overflow="hidden"><defs><clipPath id="clip0"><rect x="484" y="222" width="96" height="96"/></clipPath></defs><g clip-path="url(#clip0)" transform="translate(-484 -222)"><path d="M561.141 260.265 563 258.778 562.921 258.214C562.035 252.235 557.221 245.529 547.206 243.249 546.666 243.135 546.135 243.481 546.021 244.022 546.007 244.09 546 244.159 546 244.229L546 246.222C546.008 246.672 546.324 247.057 546.763 247.153 551.516 248.326 554.795 253.393 555.112 259.688L556.926 290.152C557.008 291.535 555.954 292.723 554.57 292.805 554.561 292.806 554.551 292.807 554.542 292.807L554.434 292.807C552.999 292.735 551.881 291.536 551.909 290.1L551.909 273.6C551.909 269.182 548.327 265.6 543.909 265.6L542 265.6 542 242C542 238.686 539.314 236 536 236L512 236C508.686 236 506 238.686 506 242L506 298 502 298 502 304 546 304 546 298 542 298 542 271.6 543.909 271.6C545.014 271.6 545.909 272.495 545.909 273.6L545.909 289.982C545.86 292.929 547.291 295.704 549.72 297.373 553.626 299.977 558.903 298.922 561.508 295.016 562.535 293.475 563.031 291.641 562.92 289.792ZM512 242 536 242 536 260 512 260Z" fill="#0070C0"/></g></svg>