<svg width="68" height="82" xmlns="http://www.w3.org/2000/svg" xmlns:xlink="http://www.w3.org/1999/xlink" overflow="hidden"><defs><clipPath id="clip0"><rect x="350" y="439" width="68" height="82"/></clipPath></defs><g clip-path="url(#clip0)" transform="translate(-350 -439)"><path d="M23.8306 39.7176 23.8306 57.5905C22.1853 57.5905 20.8517 58.9241 20.8517 60.5693 20.8517 62.2145 22.1853 63.5481 23.8306 63.5481L70.4987 63.5481C72.1439 63.5481 73.4775 62.2145 73.4775 60.5693 73.4775 58.9241 72.1439 57.5905 70.4987 57.5905L70.4987 39.7176Z" fill="#0070C0" transform="matrix(1 0 0 1.00592 334.536 430.931)"/><path d="M21.8447 19.8588 23.8306 19.8588 23.8306 29.7882C22.1853 29.7882 20.8517 31.1218 20.8517 32.767 20.8517 34.4122 22.1853 35.7458 23.8306 35.7458L70.4987 35.7458C72.1439 35.7458 73.4775 34.4122 73.4775 32.767 73.4775 31.1218 72.1439 29.7882 70.4987 29.7882L70.4987 19.8588 72.4846 19.8588C74.1298 19.8588 75.4634 18.5252 75.4634 16.88 75.4634 15.2348 74.1298 13.9012 72.4846 13.9012L64.5411 13.9012 64.5411 10.9223 53.6187 10.9223 53.6187 13.9012 21.8447 13.9012C20.1995 13.9012 18.8659 15.2348 18.8659 16.88 18.8659 18.5252 20.1995 19.8588 21.8447 19.8588Z" fill="#0070C0" transform="matrix(1 0 0 1.00592 334.536 430.931)"/><path d="M72.4846 79.4352 70.4987 79.4352 70.4987 67.5199 23.8306 67.5199 23.8306 79.4352 21.8447 79.4352C20.1995 79.4352 18.8659 80.7688 18.8659 82.414 18.8659 84.0592 20.1995 85.3928 21.8447 85.3928L72.4846 85.3928C74.1298 85.3928 75.4634 84.0592 75.4634 82.414 75.4634 80.7688 74.1298 79.4352 72.4846 79.4352Z" fill="#0070C0" transform="matrix(1 0 0 1.00592 334.536 430.931)"/></g></svg>