<svg width="96" height="79" xmlns="http://www.w3.org/2000/svg" xmlns:xlink="http://www.w3.org/1999/xlink" overflow="hidden"><defs><clipPath id="clip0"><rect x="596" y="441" width="96" height="79"/></clipPath></defs><g clip-path="url(#clip0)" transform="translate(-596 -441)"><path d="M84 79 84 68 80.011 68 80.011 41 82.575 39.965C83.4151 39.6258 83.9222 38.7642 83.811 37.865L82.29 25.57C82.1616 24.5285 81.7623 23.5389 81.132 22.7L73.691 12.8C73.1466 12.0755 72.1832 11.8076 71.343 12.147L63.5 15.314C62.4798 15.7298 61.988 16.8923 62.4 17.914L66.291 27.55 26 44.239 26 42 10 42 10 58 12 58 12 79 4 79 4 85 92 85 92 79ZM50.5 40.584 68.526 33.118 72.126 42.027C72.5418 43.0472 73.7043 43.539 74.726 43.127L76.01 42.609 76.01 68 72 68 72 79 54.8 79ZM47.864 71 40.38 71 40.827 67 47.417 67ZM41.274 63 41.726 58.955 46.517 58.955 46.97 63ZM46.074 54.955 42.174 54.955 42.615 51 45.628 51ZM43.062 47 43.453 43.5 44.731 42.97 45.181 47ZM39.932 75 48.311 75 48.758 79 39.485 79ZM37.122 46.126 33.448 79 24 79 24 58 26 58 26 50.733ZM16 58 20 58 20 79 16 79Z" fill="#0070C0" transform="matrix(1 0 0 1.00222 596 429.825)"/></g></svg>