<svg width="86" height="64" xmlns="http://www.w3.org/2000/svg" xmlns:xlink="http://www.w3.org/1999/xlink" overflow="hidden"><defs><clipPath id="clip0"><rect x="468" y="448" width="86" height="64"/></clipPath></defs><g clip-path="url(#clip0)" transform="translate(-468 -448)"><path d="M115.265 21.5841 26.9802 21.5841 26.9802 8.09405 13.4901 8.09405C7.53257 8.10074 2.70471 12.9286 2.69802 18.8861L2.69802 97.1286C2.70471 103.086 7.53257 107.914 13.4901 107.921L102.525 107.921 102.525 121.411 116.015 121.411C121.972 121.404 126.8 116.576 126.807 110.619L126.807 32.3762C126.587 26.2146 121.427 21.39 115.265 21.5841ZM10.7921 18.8861C10.7921 17.396 12 16.1881 13.4901 16.1881L18.8861 16.1881 18.8861 86.3366 13.4901 86.3366C12.58 86.3362 11.6734 86.4508 10.7921 86.6779ZM10.7921 97.1286C10.7921 95.6385 12 94.4306 13.4901 94.4306L26.9802 94.4306 26.9802 29.6782 115.265 29.6782C116.948 29.5205 118.461 30.7047 118.713 32.3762L118.713 99.8267 13.4901 99.8267C12 99.8267 10.7921 98.6187 10.7921 97.1286ZM118.713 110.619C118.713 112.109 117.505 113.317 116.015 113.317L110.619 113.317 110.619 107.921 118.713 107.921Z" fill="#0070C0" transform="matrix(1.0042 0 0 1 437.307 414.58)"/><path d="M111.293 37.0977 34.3997 37.0977 34.3997 92.4071 111.293 92.4071ZM60.3169 88.3601C57.9727 86.0093 56.9601 82.6416 57.6189 79.3878 58.3864 76.1974 59.0515 74.7256 63.0351 71.8981 65.2854 70.186 67.4297 68.3389 69.4564 66.3672 72.5533 63.3377 75.888 60.5611 79.4283 58.064 88.3884 52.15 104.72 52.8919 107.248 53.0471L107.248 62.5401C101.861 58.0667 93.226 56.4695 84.537 58.7898 77.4277 60.6892 71.6513 64.8603 68.6929 70.2281 66.6711 73.6599 66.1724 77.7797 67.3169 81.5948 68.1716 84.2438 69.7687 86.5918 71.9184 88.3601ZM52.2943 41.1448 57.1508 41.1448C55.8301 43.9777 54.3556 46.619 52.0731 47.4433L38.4468 52.3645 38.4468 47.8898C38.8436 47.9396 39.2433 47.9648 39.6433 47.9654 42.6384 47.8522 45.5415 46.899 48.0207 45.2147 49.7177 44.1764 51.1745 42.7891 52.2943 41.1448ZM38.4468 56.6678 53.4437 51.2502C57.7511 49.6934 59.7665 45.2107 61.5377 41.2567L61.589 41.1448 66.7759 41.1448C66.5601 41.6547 66.3456 42.17 66.1271 42.6934 64.1143 47.5418 61.8332 53.0363 57.9291 54.5647 50.3922 57.5096 42.5828 61.4028 38.4468 63.5383ZM59.4036 58.3325C64.9116 56.1741 67.5422 49.8337 69.8652 44.2461 70.3103 43.1669 70.7461 42.1322 71.1899 41.1434L81.8471 41.1434C78.5069 42.3805 75.8399 44.0573 74.6407 46.3412 72.2462 50.9008 64.8307 58.1382 59.3321 62.2271 56.6017 64.2573 54.9316 65.3204 53.3182 66.3496 51.8073 67.3115 50.3801 68.2207 48.3417 69.7734 43.3204 74.0544 39.8521 79.8727 38.4751 86.3258 38.4751 86.3325 38.4697 86.3379 38.4629 86.3379 38.4562 86.3379 38.4508 86.3325 38.4508 86.3258L38.4508 68.1142C45.2605 64.4918 52.2541 61.2268 59.4036 58.3325ZM50.7902 72.9935C52.6936 71.5447 53.9887 70.7191 55.4888 69.764 57.0847 68.7468 58.895 67.5934 61.7428 65.4768 66.7975 61.7172 75.2518 53.8754 78.2196 48.223 80.691 43.5177 96.9465 41.795 107.246 41.7721L107.246 48.9893C103.67 48.7775 87.0475 48.1798 77.1984 54.6848 73.4694 57.3024 69.9591 60.2181 66.7017 63.4034 64.8019 65.2525 62.7951 66.9885 60.6919 68.6025 55.8719 72.0222 54.678 74.3061 53.6771 78.4503 52.8801 81.8391 53.4676 85.4059 55.3094 88.3601L42.1903 88.3601C43.2094 82.4031 46.2458 76.9775 50.7902 72.9935ZM71.1805 80.3901C70.3759 77.6257 70.7581 74.6512 72.2354 72.1801 74.6299 67.8363 79.6185 64.2924 85.5798 62.7006 94.6411 60.2805 103.833 62.8436 107.246 68.6565L107.246 78.6283C104.938 83.0517 99.9305 86.7224 93.8182 88.3601L83.246 88.3601C82.163 88.3599 81.0812 88.2856 80.0084 88.1375L79.5052 88.0673C75.2059 86.5484 72.2502 83.822 71.1805 80.3901ZM46.7836 41.1448C46.4968 41.3676 46.1987 41.5756 45.8906 41.768 41.969 44.1962 39.445 44.0182 38.4468 43.7915L38.4468 41.1448ZM103.515 88.3601C104.855 87.4692 106.104 86.4499 107.246 85.3167L107.246 88.3601Z" fill="#0070C0" transform="matrix(1.0042 0 0 1 437.307 414.58)"/><path d="M92.5703 85.9885C96.4737 85.0774 99.8446 82.6306 101.92 79.2017 103.152 77.0713 103.453 74.5287 102.755 72.1693 100.991 66.5142 93.802 63.6354 86.3892 65.6158 82.486 66.5265 79.1151 68.9728 77.0392 72.4013 75.8073 74.5314 75.5054 77.0743 76.2042 79.4337 77.5923 83.8854 82.3341 86.6131 87.9041 86.6131 89.48 86.6085 91.0486 86.3986 92.5703 85.9885ZM80.0677 78.229C79.7013 76.9216 79.8876 75.521 80.583 74.3547 82.1402 71.9045 84.6023 70.1686 87.4333 69.5252 88.5821 69.2171 89.7661 69.0602 90.9556 69.0585 94.7679 69.0585 98.0621 70.715 98.8918 73.3753 99.2584 74.6825 99.0716 76.0829 98.3751 77.2483 96.8184 79.6985 94.3568 81.4348 91.5262 82.0791 86.3959 83.451 81.1456 81.6865 80.0677 78.229Z" fill="#0070C0" transform="matrix(1.0042 0 0 1 437.307 414.58)"/><path d="M96.3192 77.5963C96.9641 76.4655 97.0903 75.1117 96.6659 73.8812 95.6569 71.024 91.7717 69.5158 87.8178 70.4466 85.6681 70.8551 83.7886 72.1466 82.6362 74.0066 81.9929 75.1374 81.8666 76.4902 82.2895 77.7204 83.0989 80.0138 85.7457 81.4316 88.7971 81.4316 89.5855 81.4322 90.3714 81.3416 91.139 81.1618 93.2896 80.753 95.1695 79.4592 96.3192 77.5963ZM92.7673 75.6578C92.1521 76.4954 91.2308 77.0559 90.2042 77.2173 88.0269 77.7312 86.3096 76.9636 86.1018 76.3728 86.0856 76.3283 86.0425 76.2055 86.1855 75.9452 86.8004 75.1073 87.7219 74.5466 88.7486 74.3857 89.2144 74.2747 89.6915 74.2181 90.1704 74.2171 91.6395 74.2171 92.6904 74.7756 92.8509 75.2302L92.8509 75.2302C92.8671 75.2747 92.9116 75.3974 92.7686 75.6578Z" fill="#0070C0" transform="matrix(1.0042 0 0 1 437.307 414.58)"/></g></svg>