<svg width="76" height="90" xmlns="http://www.w3.org/2000/svg" xmlns:xlink="http://www.w3.org/1999/xlink" overflow="hidden"><defs><clipPath id="clip0"><rect x="732" y="435" width="76" height="90"/></clipPath></defs><g clip-path="url(#clip0)" transform="translate(-732 -435)"><path d="M31.193 51.3428C27.0762 52.7311 23.2183 54.793 19.7767 57.4445 17.4396 59.2698 16.0531 62.0538 16.0046 65.0187L16.0046 82.5938 16.8949 83.188C18.9735 84.5734 22.5655 85.6617 27.0078 86.4589L27.0078 80.023 46.0133 80.023 46.0133 88.0724C46.7715 88.0837 47.5307 88.0897 48.2909 88.0904 48.8661 88.0904 49.4402 88.0834 50.0144 88.0774L50.0144 80.023 69.0199 80.023 69.0199 86.5309C73.6312 85.7147 77.2783 84.5794 79.2228 83.1239L80.023 82.5238 80.023 64.9767C79.9698 62.0401 78.5987 59.283 76.289 57.4686 72.8496 54.8153 68.9943 52.7504 64.8797 51.3578L58.6429 48.8571C58.266 48.7051 58.0185 48.3402 58.0167 47.9338L58.0167 45.4851C61.8091 42.4546 64.0175 37.864 64.0184 33.0095L64.0184 26.0075 65.0187 26.0075C66.1236 26.0075 67.0193 25.1118 67.0193 24.0069 67.0193 22.902 66.1236 22.0063 65.0187 22.0063L64.0184 22.0063C63.6701 16.4824 60.4925 11.5306 55.616 8.91257L54.0156 15.2444C53.9027 15.7017 53.4861 16.0183 53.0153 16.0046L52.7752 16.0046C52.2344 15.8915 51.8877 15.3614 52.0009 14.8208 52.0009 14.8206 52.001 14.8205 52.001 14.8203 52.001 14.8013 52.01 14.7833 52.015 14.7643L53.9155 7.27209C53.5821 5.94308 52.3909 5.00867 51.0207 5.00144L45.019 5.00144C43.6466 5.00594 42.4521 5.94092 42.1181 7.27209L44.0187 14.7643C44.1636 15.2964 43.8503 15.8455 43.3185 15.9916L43.2585 16.0046 43.0184 16.0046C42.5476 16.0183 42.1309 15.7017 42.0181 15.2444L40.4677 8.91257C35.5911 11.5306 32.4135 16.4824 32.0652 22.0063L31.0149 22.0063C29.91 22.0063 29.0144 22.902 29.0144 24.0069 29.0144 25.1118 29.91 26.0075 31.0149 26.0075L32.0152 26.0075 32.0152 33.0095C32.0166 37.8603 34.2222 42.4477 38.0099 45.4781L38.0099 47.9338C38.0117 48.338 37.7684 48.7029 37.3948 48.8571ZM36.0104 33.0095 36.0104 26.0075 60.0173 26.0075 60.0173 33.0095C60.0173 39.6388 54.6431 45.013 48.0138 45.013 41.3845 45.013 36.0104 39.6388 36.0104 33.0095ZM46.0133 76.0219 27.3259 76.0219 30.4648 55.9931 38.9042 52.5611C38.9642 52.5361 39.0172 52.5021 39.0763 52.4751L46.0183 69.0199ZM48.0138 53.0153C45.3251 53.0418 42.648 52.6569 40.0755 51.8739 41.2967 50.9316 42.012 49.4764 42.0121 47.9338L42.0121 47.8338C45.8605 49.4062 50.1721 49.4062 54.0206 47.8338L54.0206 47.9338C54.019 49.4835 54.7408 50.9451 55.9721 51.8859 53.3918 52.6631 50.7085 53.0439 48.0138 53.0153ZM50.0144 76.0219 50.0144 69.0199 56.9544 52.4801C57.0134 52.5071 57.0674 52.5421 57.1285 52.5671L65.6309 55.9681 68.7198 76.0219Z" fill="#0070C0" transform="matrix(1.00142 0 0 1 722.052 435)"/></g></svg>