<svg width="64" height="64" xmlns="http://www.w3.org/2000/svg" xmlns:xlink="http://www.w3.org/1999/xlink" overflow="hidden"><defs><clipPath id="clip0"><rect x="274" y="239" width="64" height="64"/></clipPath></defs><g clip-path="url(#clip0)" transform="translate(-274 -239)"><path d="M311.333 272.667C311.333 274.133 310.133 275.333 308.667 275.333L306 275.333C304.533 275.333 303.333 274.133 303.333 272.667L303.333 271.333 280.667 271.333 280.667 290C280.667 291.467 281.867 292.667 283.333 292.667L331.333 292.667C332.8 292.667 334 291.467 334 290L334 271.333 311.333 271.333 311.333 272.667Z" fill="#0070C0"/><path d="M331.333 255.333 318 255.333 318 251C318 248.4 315.933 246.333 313.333 246.333L301.333 246.333C298.733 246.333 296.667 248.4 296.667 251L296.667 255.333 283.333 255.333C281.867 255.333 280.667 256.533 280.667 258L280.667 268.667 303.333 268.667 303.333 267.333 311.333 267.333 311.333 268.667 334 268.667 334 258C334 256.533 332.8 255.333 331.333 255.333M300.667 255.333 300.667 251C300.667 250.6 300.933 250.333 301.333 250.333L313.333 250.333C313.733 250.333 314 250.6 314 251L314 255.333 300.667 255.333Z" fill="#0070C0"/></g></svg>