<svg width="0" height="0" class="hidden">
  <symbol version="1.1" id="facebook" xmlns="http://www.w3.org/2000/svg" xmlns:xlink="http://www.w3.org/1999/xlink" x="0px" y="0px" xml:space="preserve" viewBox="0 0 512 512">
    <g>
      <path d="M360.7,284.1l12.5-81.4h-78.1v-52.8c0-22.3,10.9-44,45.9-44h35.5V36.5c0,0-32.2-5.5-63.1-5.5C249.1,31,207,70,207,140.6
		v62.1h-71.5v81.4H207V481h88V284.1H360.7z"></path>
    </g>
  </symbol>
  <symbol xmlns="http://www.w3.org/2000/svg" xmlns:xlink="http://www.w3.org/1999/xlink" overflow="hidden" viewBox="0 0 96 96" id="gas-station">
    <defs>
      <clipPath id="clip0">
        <rect x="484" y="222" width="96" height="96"></rect>
      </clipPath>
    </defs>
    <g clip-path="url(#clip0)" transform="translate(-484 -222)">
      <path d="M561.141 260.265 563 258.778 562.921 258.214C562.035 252.235 557.221 245.529 547.206 243.249 546.666 243.135 546.135 243.481 546.021 244.022 546.007 244.09 546 244.159 546 244.229L546 246.222C546.008 246.672 546.324 247.057 546.763 247.153 551.516 248.326 554.795 253.393 555.112 259.688L556.926 290.152C557.008 291.535 555.954 292.723 554.57 292.805 554.561 292.806 554.551 292.807 554.542 292.807L554.434 292.807C552.999 292.735 551.881 291.536 551.909 290.1L551.909 273.6C551.909 269.182 548.327 265.6 543.909 265.6L542 265.6 542 242C542 238.686 539.314 236 536 236L512 236C508.686 236 506 238.686 506 242L506 298 502 298 502 304 546 304 546 298 542 298 542 271.6 543.909 271.6C545.014 271.6 545.909 272.495 545.909 273.6L545.909 289.982C545.86 292.929 547.291 295.704 549.72 297.373 553.626 299.977 558.903 298.922 561.508 295.016 562.535 293.475 563.031 291.641 562.92 289.792ZM512 242 536 242 536 260 512 260Z"></path>
    </g>
  </symbol>
  <symbol xmlns="http://www.w3.org/2000/svg" xmlns:xlink="http://www.w3.org/1999/xlink" overflow="hidden" viewBox="0 0 68 82" id="icon-barrel">
    <defs>
      <clipPath id="clip0">
        <rect x="350" y="439" width="68" height="82"></rect>
      </clipPath>
    </defs>
    <g clip-path="url(#clip0)" transform="translate(-350 -439)">
      <path d="M23.8306 39.7176 23.8306 57.5905C22.1853 57.5905 20.8517 58.9241 20.8517 60.5693 20.8517 62.2145 22.1853 63.5481 23.8306 63.5481L70.4987 63.5481C72.1439 63.5481 73.4775 62.2145 73.4775 60.5693 73.4775 58.9241 72.1439 57.5905 70.4987 57.5905L70.4987 39.7176Z" transform="matrix(1 0 0 1.00592 334.536 430.931)"></path>
      <path d="M21.8447 19.8588 23.8306 19.8588 23.8306 29.7882C22.1853 29.7882 20.8517 31.1218 20.8517 32.767 20.8517 34.4122 22.1853 35.7458 23.8306 35.7458L70.4987 35.7458C72.1439 35.7458 73.4775 34.4122 73.4775 32.767 73.4775 31.1218 72.1439 29.7882 70.4987 29.7882L70.4987 19.8588 72.4846 19.8588C74.1298 19.8588 75.4634 18.5252 75.4634 16.88 75.4634 15.2348 74.1298 13.9012 72.4846 13.9012L64.5411 13.9012 64.5411 10.9223 53.6187 10.9223 53.6187 13.9012 21.8447 13.9012C20.1995 13.9012 18.8659 15.2348 18.8659 16.88 18.8659 18.5252 20.1995 19.8588 21.8447 19.8588Z" transform="matrix(1 0 0 1.00592 334.536 430.931)"></path>
      <path d="M72.4846 79.4352 70.4987 79.4352 70.4987 67.5199 23.8306 67.5199 23.8306 79.4352 21.8447 79.4352C20.1995 79.4352 18.8659 80.7688 18.8659 82.414 18.8659 84.0592 20.1995 85.3928 21.8447 85.3928L72.4846 85.3928C74.1298 85.3928 75.4634 84.0592 75.4634 82.414 75.4634 80.7688 74.1298 79.4352 72.4846 79.4352Z" transform="matrix(1 0 0 1.00592 334.536 430.931)"></path>
    </g>
  </symbol>
  <symbol xmlns="http://www.w3.org/2000/svg" xmlns:xlink="http://www.w3.org/1999/xlink" overflow="hidden" viewBox="0 0 76 90" id="icon-engineer">
    <defs>
      <clipPath id="clip0">
        <rect x="732" y="435" width="76" height="90"></rect>
      </clipPath>
    </defs>
    <g clip-path="url(#clip0)" transform="translate(-732 -435)">
      <path d="M31.193 51.3428C27.0762 52.7311 23.2183 54.793 19.7767 57.4445 17.4396 59.2698 16.0531 62.0538 16.0046 65.0187L16.0046 82.5938 16.8949 83.188C18.9735 84.5734 22.5655 85.6617 27.0078 86.4589L27.0078 80.023 46.0133 80.023 46.0133 88.0724C46.7715 88.0837 47.5307 88.0897 48.2909 88.0904 48.8661 88.0904 49.4402 88.0834 50.0144 88.0774L50.0144 80.023 69.0199 80.023 69.0199 86.5309C73.6312 85.7147 77.2783 84.5794 79.2228 83.1239L80.023 82.5238 80.023 64.9767C79.9698 62.0401 78.5987 59.283 76.289 57.4686 72.8496 54.8153 68.9943 52.7504 64.8797 51.3578L58.6429 48.8571C58.266 48.7051 58.0185 48.3402 58.0167 47.9338L58.0167 45.4851C61.8091 42.4546 64.0175 37.864 64.0184 33.0095L64.0184 26.0075 65.0187 26.0075C66.1236 26.0075 67.0193 25.1118 67.0193 24.0069 67.0193 22.902 66.1236 22.0063 65.0187 22.0063L64.0184 22.0063C63.6701 16.4824 60.4925 11.5306 55.616 8.91257L54.0156 15.2444C53.9027 15.7017 53.4861 16.0183 53.0153 16.0046L52.7752 16.0046C52.2344 15.8915 51.8877 15.3614 52.0009 14.8208 52.0009 14.8206 52.001 14.8205 52.001 14.8203 52.001 14.8013 52.01 14.7833 52.015 14.7643L53.9155 7.27209C53.5821 5.94308 52.3909 5.00867 51.0207 5.00144L45.019 5.00144C43.6466 5.00594 42.4521 5.94092 42.1181 7.27209L44.0187 14.7643C44.1636 15.2964 43.8503 15.8455 43.3185 15.9916L43.2585 16.0046 43.0184 16.0046C42.5476 16.0183 42.1309 15.7017 42.0181 15.2444L40.4677 8.91257C35.5911 11.5306 32.4135 16.4824 32.0652 22.0063L31.0149 22.0063C29.91 22.0063 29.0144 22.902 29.0144 24.0069 29.0144 25.1118 29.91 26.0075 31.0149 26.0075L32.0152 26.0075 32.0152 33.0095C32.0166 37.8603 34.2222 42.4477 38.0099 45.4781L38.0099 47.9338C38.0117 48.338 37.7684 48.7029 37.3948 48.8571ZM36.0104 33.0095 36.0104 26.0075 60.0173 26.0075 60.0173 33.0095C60.0173 39.6388 54.6431 45.013 48.0138 45.013 41.3845 45.013 36.0104 39.6388 36.0104 33.0095ZM46.0133 76.0219 27.3259 76.0219 30.4648 55.9931 38.9042 52.5611C38.9642 52.5361 39.0172 52.5021 39.0763 52.4751L46.0183 69.0199ZM48.0138 53.0153C45.3251 53.0418 42.648 52.6569 40.0755 51.8739 41.2967 50.9316 42.012 49.4764 42.0121 47.9338L42.0121 47.8338C45.8605 49.4062 50.1721 49.4062 54.0206 47.8338L54.0206 47.9338C54.019 49.4835 54.7408 50.9451 55.9721 51.8859 53.3918 52.6631 50.7085 53.0439 48.0138 53.0153ZM50.0144 76.0219 50.0144 69.0199 56.9544 52.4801C57.0134 52.5071 57.0674 52.5421 57.1285 52.5671L65.6309 55.9681 68.7198 76.0219Z" transform="matrix(1.00142 0 0 1 722.052 435)"></path>
    </g>
  </symbol>
  <symbol xmlns="http://www.w3.org/2000/svg" xmlns:xlink="http://www.w3.org/1999/xlink" overflow="hidden" viewBox="0 0 86 64" id="icon-map">
    <defs>
      <clipPath id="clip0">
        <rect x="468" y="448" width="86" height="64"></rect>
      </clipPath>
    </defs>
    <g clip-path="url(#clip0)" transform="translate(-468 -448)">
      <path d="M115.265 21.5841 26.9802 21.5841 26.9802 8.09405 13.4901 8.09405C7.53257 8.10074 2.70471 12.9286 2.69802 18.8861L2.69802 97.1286C2.70471 103.086 7.53257 107.914 13.4901 107.921L102.525 107.921 102.525 121.411 116.015 121.411C121.972 121.404 126.8 116.576 126.807 110.619L126.807 32.3762C126.587 26.2146 121.427 21.39 115.265 21.5841ZM10.7921 18.8861C10.7921 17.396 12 16.1881 13.4901 16.1881L18.8861 16.1881 18.8861 86.3366 13.4901 86.3366C12.58 86.3362 11.6734 86.4508 10.7921 86.6779ZM10.7921 97.1286C10.7921 95.6385 12 94.4306 13.4901 94.4306L26.9802 94.4306 26.9802 29.6782 115.265 29.6782C116.948 29.5205 118.461 30.7047 118.713 32.3762L118.713 99.8267 13.4901 99.8267C12 99.8267 10.7921 98.6187 10.7921 97.1286ZM118.713 110.619C118.713 112.109 117.505 113.317 116.015 113.317L110.619 113.317 110.619 107.921 118.713 107.921Z" transform="matrix(1.0042 0 0 1 437.307 414.58)"></path>
      <path d="M111.293 37.0977 34.3997 37.0977 34.3997 92.4071 111.293 92.4071ZM60.3169 88.3601C57.9727 86.0093 56.9601 82.6416 57.6189 79.3878 58.3864 76.1974 59.0515 74.7256 63.0351 71.8981 65.2854 70.186 67.4297 68.3389 69.4564 66.3672 72.5533 63.3377 75.888 60.5611 79.4283 58.064 88.3884 52.15 104.72 52.8919 107.248 53.0471L107.248 62.5401C101.861 58.0667 93.226 56.4695 84.537 58.7898 77.4277 60.6892 71.6513 64.8603 68.6929 70.2281 66.6711 73.6599 66.1724 77.7797 67.3169 81.5948 68.1716 84.2438 69.7687 86.5918 71.9184 88.3601ZM52.2943 41.1448 57.1508 41.1448C55.8301 43.9777 54.3556 46.619 52.0731 47.4433L38.4468 52.3645 38.4468 47.8898C38.8436 47.9396 39.2433 47.9648 39.6433 47.9654 42.6384 47.8522 45.5415 46.899 48.0207 45.2147 49.7177 44.1764 51.1745 42.7891 52.2943 41.1448ZM38.4468 56.6678 53.4437 51.2502C57.7511 49.6934 59.7665 45.2107 61.5377 41.2567L61.589 41.1448 66.7759 41.1448C66.5601 41.6547 66.3456 42.17 66.1271 42.6934 64.1143 47.5418 61.8332 53.0363 57.9291 54.5647 50.3922 57.5096 42.5828 61.4028 38.4468 63.5383ZM59.4036 58.3325C64.9116 56.1741 67.5422 49.8337 69.8652 44.2461 70.3103 43.1669 70.7461 42.1322 71.1899 41.1434L81.8471 41.1434C78.5069 42.3805 75.8399 44.0573 74.6407 46.3412 72.2462 50.9008 64.8307 58.1382 59.3321 62.2271 56.6017 64.2573 54.9316 65.3204 53.3182 66.3496 51.8073 67.3115 50.3801 68.2207 48.3417 69.7734 43.3204 74.0544 39.8521 79.8727 38.4751 86.3258 38.4751 86.3325 38.4697 86.3379 38.4629 86.3379 38.4562 86.3379 38.4508 86.3325 38.4508 86.3258L38.4508 68.1142C45.2605 64.4918 52.2541 61.2268 59.4036 58.3325ZM50.7902 72.9935C52.6936 71.5447 53.9887 70.7191 55.4888 69.764 57.0847 68.7468 58.895 67.5934 61.7428 65.4768 66.7975 61.7172 75.2518 53.8754 78.2196 48.223 80.691 43.5177 96.9465 41.795 107.246 41.7721L107.246 48.9893C103.67 48.7775 87.0475 48.1798 77.1984 54.6848 73.4694 57.3024 69.9591 60.2181 66.7017 63.4034 64.8019 65.2525 62.7951 66.9885 60.6919 68.6025 55.8719 72.0222 54.678 74.3061 53.6771 78.4503 52.8801 81.8391 53.4676 85.4059 55.3094 88.3601L42.1903 88.3601C43.2094 82.4031 46.2458 76.9775 50.7902 72.9935ZM71.1805 80.3901C70.3759 77.6257 70.7581 74.6512 72.2354 72.1801 74.6299 67.8363 79.6185 64.2924 85.5798 62.7006 94.6411 60.2805 103.833 62.8436 107.246 68.6565L107.246 78.6283C104.938 83.0517 99.9305 86.7224 93.8182 88.3601L83.246 88.3601C82.163 88.3599 81.0812 88.2856 80.0084 88.1375L79.5052 88.0673C75.2059 86.5484 72.2502 83.822 71.1805 80.3901ZM46.7836 41.1448C46.4968 41.3676 46.1987 41.5756 45.8906 41.768 41.969 44.1962 39.445 44.0182 38.4468 43.7915L38.4468 41.1448ZM103.515 88.3601C104.855 87.4692 106.104 86.4499 107.246 85.3167L107.246 88.3601Z" transform="matrix(1.0042 0 0 1 437.307 414.58)"></path>
      <path d="M92.5703 85.9885C96.4737 85.0774 99.8446 82.6306 101.92 79.2017 103.152 77.0713 103.453 74.5287 102.755 72.1693 100.991 66.5142 93.802 63.6354 86.3892 65.6158 82.486 66.5265 79.1151 68.9728 77.0392 72.4013 75.8073 74.5314 75.5054 77.0743 76.2042 79.4337 77.5923 83.8854 82.3341 86.6131 87.9041 86.6131 89.48 86.6085 91.0486 86.3986 92.5703 85.9885ZM80.0677 78.229C79.7013 76.9216 79.8876 75.521 80.583 74.3547 82.1402 71.9045 84.6023 70.1686 87.4333 69.5252 88.5821 69.2171 89.7661 69.0602 90.9556 69.0585 94.7679 69.0585 98.0621 70.715 98.8918 73.3753 99.2584 74.6825 99.0716 76.0829 98.3751 77.2483 96.8184 79.6985 94.3568 81.4348 91.5262 82.0791 86.3959 83.451 81.1456 81.6865 80.0677 78.229Z" transform="matrix(1.0042 0 0 1 437.307 414.58)"></path>
      <path d="M96.3192 77.5963C96.9641 76.4655 97.0903 75.1117 96.6659 73.8812 95.6569 71.024 91.7717 69.5158 87.8178 70.4466 85.6681 70.8551 83.7886 72.1466 82.6362 74.0066 81.9929 75.1374 81.8666 76.4902 82.2895 77.7204 83.0989 80.0138 85.7457 81.4316 88.7971 81.4316 89.5855 81.4322 90.3714 81.3416 91.139 81.1618 93.2896 80.753 95.1695 79.4592 96.3192 77.5963ZM92.7673 75.6578C92.1521 76.4954 91.2308 77.0559 90.2042 77.2173 88.0269 77.7312 86.3096 76.9636 86.1018 76.3728 86.0856 76.3283 86.0425 76.2055 86.1855 75.9452 86.8004 75.1073 87.7219 74.5466 88.7486 74.3857 89.2144 74.2747 89.6915 74.2181 90.1704 74.2171 91.6395 74.2171 92.6904 74.7756 92.8509 75.2302L92.8509 75.2302C92.8671 75.2747 92.9116 75.3974 92.7686 75.6578Z" transform="matrix(1.0042 0 0 1 437.307 414.58)"></path>
    </g>
  </symbol>
  <symbol xmlns="http://www.w3.org/2000/svg" xmlns:xlink="http://www.w3.org/1999/xlink" overflow="hidden" viewBox="0 0 96 79" id="icon-sucker-rod">
    <defs>
      <clipPath id="clip0">
        <rect x="596" y="441" width="96" height="79"></rect>
      </clipPath>
    </defs>
    <g clip-path="url(#clip0)" transform="translate(-596 -441)">
      <path d="M84 79 84 68 80.011 68 80.011 41 82.575 39.965C83.4151 39.6258 83.9222 38.7642 83.811 37.865L82.29 25.57C82.1616 24.5285 81.7623 23.5389 81.132 22.7L73.691 12.8C73.1466 12.0755 72.1832 11.8076 71.343 12.147L63.5 15.314C62.4798 15.7298 61.988 16.8923 62.4 17.914L66.291 27.55 26 44.239 26 42 10 42 10 58 12 58 12 79 4 79 4 85 92 85 92 79ZM50.5 40.584 68.526 33.118 72.126 42.027C72.5418 43.0472 73.7043 43.539 74.726 43.127L76.01 42.609 76.01 68 72 68 72 79 54.8 79ZM47.864 71 40.38 71 40.827 67 47.417 67ZM41.274 63 41.726 58.955 46.517 58.955 46.97 63ZM46.074 54.955 42.174 54.955 42.615 51 45.628 51ZM43.062 47 43.453 43.5 44.731 42.97 45.181 47ZM39.932 75 48.311 75 48.758 79 39.485 79ZM37.122 46.126 33.448 79 24 79 24 58 26 58 26 50.733ZM16 58 20 58 20 79 16 79Z" transform="matrix(1 0 0 1.00222 596 429.825)"></path>
    </g>
  </symbol>
  <symbol xmlns="http://www.w3.org/2000/svg" xmlns:xlink="http://www.w3.org/1999/xlink" overflow="hidden" viewBox="0 0 64 64" id="jobs">
    <defs>
      <clipPath id="clip0">
        <rect x="274" y="239" width="64" height="64"></rect>
      </clipPath>
    </defs>
    <g clip-path="url(#clip0)" transform="translate(-274 -239)">
      <path d="M311.333 272.667C311.333 274.133 310.133 275.333 308.667 275.333L306 275.333C304.533 275.333 303.333 274.133 303.333 272.667L303.333 271.333 280.667 271.333 280.667 290C280.667 291.467 281.867 292.667 283.333 292.667L331.333 292.667C332.8 292.667 334 291.467 334 290L334 271.333 311.333 271.333 311.333 272.667Z"></path>
      <path d="M331.333 255.333 318 255.333 318 251C318 248.4 315.933 246.333 313.333 246.333L301.333 246.333C298.733 246.333 296.667 248.4 296.667 251L296.667 255.333 283.333 255.333C281.867 255.333 280.667 256.533 280.667 258L280.667 268.667 303.333 268.667 303.333 267.333 311.333 267.333 311.333 268.667 334 268.667 334 258C334 256.533 332.8 255.333 331.333 255.333M300.667 255.333 300.667 251C300.667 250.6 300.933 250.333 301.333 250.333L313.333 250.333C313.733 250.333 314 250.6 314 251L314 255.333 300.667 255.333Z"></path>
    </g>
  </symbol>
  <symbol xmlns="http://www.w3.org/2000/svg" xmlns:xlink="http://www.w3.org/1999/xlink" overflow="hidden" viewBox="0 0 79 79" id="_main_logo">
    <defs>
      <clipPath id="clip0">
        <rect x="155" y="224" width="79" height="79"></rect>
      </clipPath>
    </defs>
    <g clip-path="url(#clip0)" transform="translate(-155 -224)">
      <path d="M229.885 234.583C225.376 233.924 221.944 235.406 220.183 239.051 218.175 243.166 219.122 247.28 220.595 251.601 221.656 255.46 223.302 261.673 223.302 264.734 223.302 268.232 221.245 270.906 217.13 270.495 212.193 269.993 207.362 263.911 198.203 263.911 191.62 263.911 189.151 266.38 184.214 270.495 179.276 274.609 174.339 280.37 170.224 281.193 166.109 282.016 163.369 281.259 161.995 278.724 160.76 276.436 160.349 273.786 161.995 268.849 162.696 266.828 163.521 264.852 164.464 262.932 164.599 262.665 164.492 262.338 164.225 262.202 163.988 262.082 163.699 262.151 163.542 262.364 162.628 263.5 161.748 264.693 161.172 265.557 159.526 268.026 157.403 272.346 157.88 277.078 158.3 281.25 160.349 283.661 163.641 285.307 166.932 286.953 175.161 287.776 181.745 283.661L182.156 283.661 182.156 290.656C182.156 292.02 183.262 293.125 184.625 293.125 185.988 293.125 187.094 292.02 187.094 290.656L187.094 283.661 187.209 283.661C191.449 284.893 195.846 285.494 200.26 285.447 201.676 285.447 203.05 285.381 204.375 285.283L204.375 290.656C204.375 292.02 205.48 293.125 206.844 293.125 208.207 293.125 209.312 292.02 209.312 290.656L209.312 284.641C209.88 284.534 210.423 284.419 210.958 284.295L210.958 290.656C210.958 292.02 212.064 293.125 213.427 293.125 214.791 293.125 215.896 292.02 215.896 290.656L215.896 282.97C219.138 282.04 224.306 280.032 227.005 276.255 230.544 271.318 227.713 261.904 226.182 257.748 225.68 256.102 225.096 254.456 224.536 252.901 222.833 248.202 221.36 244.137 223.138 240.458 223.549 239.635 224.948 237.784 229.351 238.623 230.474 238.798 231.532 238.046 231.737 236.928 231.82 235.785 231.017 234.767 229.885 234.583Z"></path>
      <path d="M188.74 290.656C188.74 292.02 189.845 293.125 191.208 293.125 192.572 293.125 193.677 292.02 193.677 290.656L193.677 286.682C192.015 286.478 190.367 286.179 188.74 285.785Z"></path>
    </g>
  </symbol>
  <symbol xmlns="http://www.w3.org/2000/svg" xmlns:xlink="http://www.w3.org/1999/xlink" overflow="hidden" viewBox="0 0 96 96" id="email">
    <defs>
      <clipPath id="clip0">
        <rect x="377" y="230" width="96" height="96"></rect>
      </clipPath>
    </defs>
    <g clip-path="url(#clip0)" transform="translate(-377 -230)">
      <path d="M385 250 385 306 465 306 465 250 385 250ZM426.4 284.9C425.6 285.7 424.4 285.7 423.6 284.9L394 256 456.1 256 426.4 284.9ZM410.5 277.7 391 297.3 391 258.6 410.5 277.7ZM413.4 280.5 420.9 287.8C422.1 288.9 423.6 289.5 425.1 289.5 426.6 289.5 428.1 288.9 429.3 287.8L436.8 280.5 456.2 300 393.9 300 413.4 280.5ZM439.5 277.7 459 258.7 459 297.2 439.5 277.7Z"></path>
    </g>
  </symbol>
</svg>