<svg width="0" height="0" class="hidden">
  <symbol xmlns="http://www.w3.org/2000/svg" xmlns:xlink="http://www.w3.org/1999/xlink" overflow="hidden" viewBox="0 0 96 96" id="azteca-oil">
    <defs>
      <clipPath id="clip0">
        <rect x="5" y="517" width="96" height="96"></rect>
      </clipPath>
    </defs>
    <g clip-path="url(#clip0)" transform="translate(-5 -517)">
      <path d="M96 529.86C90.52 529.06 86.35 530.86 84.21 535.29 81.77 540.29 82.92 545.29 84.71 550.54 86 555.23 88 562.78 88 566.5 88 570.75 85.5 574 80.5 573.5 74.5 572.89 68.63 565.5 57.5 565.5 49.5 565.5 46.5 568.5 40.5 573.5 34.5 578.5 28.5 585.5 23.5 586.5 18.5 587.5 15.17 586.58 13.5 583.5 12 580.72 11.5 577.5 13.5 571.5 14.3527 569.044 15.3546 566.643 16.5 564.31 16.6649 563.985 16.535 563.588 16.21 563.423 15.9223 563.277 15.5713 563.36 15.38 563.62 14.27 565 13.2 566.45 12.5 567.5 10.5 570.5 7.92 575.75 8.5 581.5 9.01 586.57 11.5 589.5 15.5 591.5 19.5 593.5 29.5 594.5 37.5 589.5L38 589.5 38 598C38 599.657 39.3431 601 41 601 42.6569 601 44 599.657 44 598L44 589.5 44.14 589.5C49.2919 590.996 54.6356 591.727 60 591.67 61.72 591.67 63.39 591.59 65 591.47L65 598C65 599.657 66.3431 601 68 601 69.6569 601 71 599.657 71 598L71 590.69C71.69 590.56 72.35 590.42 73 590.27L73 598C73 599.657 74.3431 601 76 601 77.6569 601 79 599.657 79 598L79 588.66C82.94 587.53 89.22 585.09 92.5 580.5 96.8 574.5 93.36 563.06 91.5 558.01 90.89 556.01 90.18 554.01 89.5 552.12 87.43 546.41 85.64 541.47 87.8 537 88.3 536 90 533.75 95.35 534.77 96.7151 534.982 98.0009 534.069 98.25 532.71 98.351 531.321 97.3748 530.084 96 529.86Z"></path>
      <path d="M46 598C46 599.657 47.3431 601 49 601 50.6569 601 52 599.657 52 598L52 593.17C49.9806 592.923 47.9772 592.559 46 592.08Z"></path>
    </g>
  </symbol>
  <symbol xmlns="http://www.w3.org/2000/svg" xmlns:xlink="http://www.w3.org/1999/xlink" overflow="hidden" viewBox="0 0 96 96" id="barrel">
    <defs>
      <clipPath id="clip0">
        <rect x="88" y="510" width="96" height="96"></rect>
      </clipPath>
    </defs>
    <g clip-path="url(#clip0)" transform="translate(-88 -510)">
      <path d="M112 550 112 568C110.343 568 109 569.343 109 571 109 572.657 110.343 574 112 574L159 574C160.657 574 162 572.657 162 571 162 569.343 160.657 568 159 568L159 550Z"></path>
      <path d="M110 530 112 530 112 540C110.343 540 109 541.343 109 543 109 544.657 110.343 546 112 546L159 546C160.657 546 162 544.657 162 543 162 541.343 160.657 540 159 540L159 530 161 530C162.657 530 164 528.657 164 527 164 525.343 162.657 524 161 524L153 524 153 521 142 521 142 524 110 524C108.343 524 107 525.343 107 527 107 528.657 108.343 530 110 530Z"></path>
      <path d="M161 590 159 590 159 578 112 578 112 590 110 590C108.343 590 107 591.343 107 593 107 594.657 108.343 596 110 596L161 596C162.657 596 164 594.657 164 593 164 591.343 162.657 590 161 590Z"></path>
    </g>
  </symbol>
  <symbol xmlns="http://www.w3.org/2000/svg" xmlns:xlink="http://www.w3.org/1999/xlink" overflow="hidden" viewBox="0 0 96 96" id="disciplina">
    <defs>
      <clipPath id="clip0">
        <rect x="957" y="581" width="96" height="96"></rect>
      </clipPath>
    </defs>
    <g clip-path="url(#clip0)" transform="translate(-957 -581)">
      <path d="M1033 613 1033 621 1025 621 1025 613 1033 613ZM977 649 985 649 985 657 977 657 977 649ZM997 613 997 621 989 621 989 613 997 613ZM1009 613 1009 621 1001 621 1001 613 1009 613ZM1021 633 1013 633 1013 625 1021 625 1021 633ZM1025 633 1025 625 1033 625 1033 633 1025 633ZM1025 645 1025 637 1033 637 1033 645 1025 645ZM1001 649 1009 649 1009 657 1001 657 1001 649ZM997 649 997 657 989 657 989 649 997 649ZM989 637 997 637 997 645 989 645 989 637ZM985 637 985 645 977 645 977 637 985 637ZM985 625 985 633 977 633 977 625 985 625ZM997 633 989 633 989 625 997 625 997 633ZM1001 633 1001 625 1009 625 1009 633 1001 633ZM1009 645 1001 645 1001 637 1009 637 1009 645ZM1013 645 1013 637 1021 637 1021 645 1013 645ZM1021 613 1021 621 1013 621 1013 613 1021 613ZM971 607 971 663 1039 663 1039 607 971 607Z"></path>
      <path d="M971 595 1039 595 1039 603 971 603Z"></path>
    </g>
  </symbol>
  <symbol xmlns="http://www.w3.org/2000/svg" xmlns:xlink="http://www.w3.org/1999/xlink" overflow="hidden" viewBox="0 0 96 96" id="email">
    <defs>
      <clipPath id="clip0">
        <rect x="69" y="324" width="96" height="96"></rect>
      </clipPath>
    </defs>
    <g clip-path="url(#clip0)" transform="translate(-69 -324)">
      <path d="M77 344 77 400 157 400 157 344 77 344ZM118.4 378.9C117.6 379.7 116.4 379.7 115.6 378.9L86 350 148.1 350 118.4 378.9ZM102.5 371.7 83 391.3 83 352.6 102.5 371.7ZM105.4 374.5 112.9 381.8C114.1 382.9 115.6 383.5 117.1 383.5 118.6 383.5 120.1 382.9 121.3 381.8L128.8 374.5 148.2 394 85.9 394 105.4 374.5ZM131.5 371.7 151 352.7 151 391.2 131.5 371.7Z"></path>
    </g>
  </symbol>
  <symbol xmlns="http://www.w3.org/2000/svg" xmlns:xlink="http://www.w3.org/1999/xlink" overflow="hidden" viewBox="0 0 96 96" id="engineer">
    <defs>
      <clipPath id="clip0">
        <rect x="408" y="505" width="96" height="96"></rect>
      </clipPath>
    </defs>
    <g clip-path="url(#clip0)" transform="translate(-408 -505)">
      <path d="M439.184 556.328C435.068 557.716 431.212 559.777 427.771 562.428 425.435 564.253 424.048 567.036 424 570L424 587.57 424.89 588.164C426.968 589.549 430.559 590.637 435 591.434L435 585 454 585 454 593.047C454.758 593.058 455.517 593.064 456.277 593.065 456.852 593.065 457.426 593.058 458 593.052L458 585 477 585 477 591.506C481.61 590.69 485.256 589.555 487.2 588.1L488 587.5 488 569.958C487.947 567.022 486.576 564.266 484.267 562.452 480.829 559.799 476.974 557.735 472.861 556.343L466.626 553.843C466.249 553.691 466.002 553.326 466 552.92L466 550.472C469.791 547.442 471.999 542.853 472 538L472 531 473 531C474.105 531 475 530.105 475 529 475 527.895 474.105 527 473 527L472 527C471.652 521.478 468.475 516.527 463.6 513.91L462 520.24C461.887 520.697 461.471 521.014 461 521L460.76 521C460.219 520.887 459.873 520.357 459.986 519.817 459.986 519.816 459.986 519.816 459.986 519.816 459.986 519.797 459.995 519.779 460 519.76L461.9 512.27C461.567 510.941 460.376 510.007 459.006 510L453.006 510C451.634 510.004 450.44 510.939 450.106 512.27L452.006 519.76C452.151 520.292 451.838 520.841 451.306 520.987L451.246 521 451.006 521C450.535 521.014 450.119 520.697 450.006 520.24L448.456 513.91C443.581 516.527 440.404 521.478 440.056 527L439.006 527C437.901 527 437.006 527.895 437.006 529 437.006 530.105 437.901 531 439.006 531L440.006 531 440.006 538C440.007 542.849 442.212 547.435 445.999 550.465L445.999 552.92C446.001 553.324 445.758 553.689 445.384 553.843ZM444 538 444 531 468 531 468 538C468 544.627 462.627 550 456 550 449.373 550 444 544.627 444 538ZM454 581 435.318 581 438.456 560.977 446.893 557.546C446.953 557.521 447.006 557.487 447.065 557.46L454.005 574ZM456 558C453.312 558.026 450.636 557.642 448.064 556.859 449.285 555.917 450 554.462 450 552.92L450 552.82C453.847 554.392 458.158 554.392 462.005 552.82L462.005 552.92C462.003 554.469 462.725 555.93 463.956 556.871 461.376 557.648 458.694 558.029 456 558ZM458 581 458 574 464.938 557.465C464.997 557.492 465.051 557.527 465.112 557.552L473.612 560.952 476.7 581Z"></path>
    </g>
  </symbol>
  <symbol version="1.1" id="facebook" xmlns="http://www.w3.org/2000/svg" xmlns:xlink="http://www.w3.org/1999/xlink" x="0px" y="0px" xml:space="preserve" viewBox="0 0 512 512">
    <g>
      <path d="M360.7,284.1l12.5-81.4h-78.1v-52.8c0-22.3,10.9-44,45.9-44h35.5V36.5c0,0-32.2-5.5-63.1-5.5C249.1,31,207,70,207,140.6
		v62.1h-71.5v81.4H207V481h88V284.1H360.7z"></path>
    </g>
  </symbol>
  <symbol xmlns="http://www.w3.org/2000/svg" xmlns:xlink="http://www.w3.org/1999/xlink" overflow="hidden" viewBox="0 0 96 96" id="gas-station">
    <defs>
      <clipPath id="clip0">
        <rect x="178" y="332" width="96" height="96"></rect>
      </clipPath>
    </defs>
    <g clip-path="url(#clip0)" transform="translate(-178 -332)">
      <path d="M255.141 370.265 257 368.778 256.921 368.214C256.035 362.235 251.221 355.529 241.206 353.249 240.666 353.135 240.135 353.481 240.021 354.022 240.007 354.09 240 354.159 240 354.229L240 356.222C240.008 356.672 240.324 357.057 240.763 357.153 245.516 358.326 248.795 363.393 249.112 369.688L250.926 400.152C251.008 401.535 249.954 402.723 248.57 402.805 248.561 402.806 248.551 402.807 248.542 402.807L248.434 402.807C246.999 402.735 245.881 401.536 245.909 400.1L245.909 383.6C245.909 379.182 242.327 375.6 237.909 375.6L236 375.6 236 352C236 348.686 233.314 346 230 346L206 346C202.686 346 200 348.686 200 352L200 408 196 408 196 414 240 414 240 408 236 408 236 381.6 237.909 381.6C239.014 381.6 239.909 382.495 239.909 383.6L239.909 399.982C239.86 402.929 241.291 405.704 243.72 407.373 247.626 409.977 252.903 408.922 255.508 405.016 256.535 403.475 257.031 401.641 256.92 399.792ZM206 352 230 352 230 370 206 370Z"></path>
    </g>
  </symbol>
  <symbol xmlns="http://www.w3.org/2000/svg" xmlns:xlink="http://www.w3.org/1999/xlink" overflow="hidden" viewBox="0 0 96 96" id="honestidad">
    <defs>
      <clipPath id="clip0">
        <rect x="973" y="355" width="96" height="96"></rect>
      </clipPath>
    </defs>
    <g clip-path="url(#clip0)" transform="translate(-973 -355)">
      <path d="M1021 408.4C1014.5 408.4 1009.2 413.7 1009.2 420.2 1009.2 426.7 1014.5 432.1 1021 432.1 1027.5 432.1 1032.8 426.8 1032.8 420.3 1032.8 413.8 1027.5 408.4 1021 408.4"></path>
      <path d="M1021 398.3C1008.9 398.3 999 408.2 999 420.3 999 432.4 1008.9 442.3 1021 442.3 1033.1 442.3 1043 432.4 1043 420.3 1043 408.2 1033.1 398.3 1021 398.3M1021 436.3C1012.2 436.3 1005 429.1 1005 420.3 1005 411.5 1012.2 404.3 1021 404.3 1029.8 404.3 1037 411.5 1037 420.3 1037 429.1 1029.8 436.3 1021 436.3"></path>
      <path d="M1026.4 394.8C1030.4 395.7 1034.1 397.4 1037.3 399.9L1049.6 372.1 1044 363.7 1040.4 363.7 1032.6 380.8 1026.4 394.8Z"></path>
      <path d="M1015.6 394.8 1009.4 380.8 1001.6 363.7 998 363.7 992.5 372.1 1004.8 399.9C1007.9 397.5 1011.6 395.7 1015.6 394.8"></path>
      <path d="M1030.5 375.8 1036 363.8 1006 363.8 1011.5 375.8Z"></path>
    </g>
  </symbol>
  <symbol xmlns="http://www.w3.org/2000/svg" xmlns:xlink="http://www.w3.org/1999/xlink" overflow="hidden" viewBox="0 0 96 96" id="integridad">
    <defs>
      <clipPath id="clip0">
        <rect x="726" y="581" width="96" height="96"></rect>
      </clipPath>
    </defs>
    <g clip-path="url(#clip0)" transform="translate(-726 -581)">
      <path d="M782.11 604.47C789.862 606.906 796.029 612.825 798.78 620.47L795.7 618.64C794.791 618.013 793.545 618.242 792.918 619.152 792.291 620.061 792.52 621.307 793.43 621.933 793.516 621.993 793.606 622.045 793.7 622.09L800.7 626.24C801.055 626.524 801.495 626.68 801.95 626.68L802 626.68 802.16 626.68 802.24 626.68 802.24 626.68 802.4 626.68C802.912 626.547 803.351 626.216 803.62 625.76L808 618.39C808.478 617.394 808.058 616.2 807.062 615.722 806.174 615.296 805.109 615.579 804.55 616.39L802.7 619.54 802.7 619.54C800.388 612.785 795.739 607.079 789.59 603.45 787.606 602.282 785.496 601.343 783.3 600.65 782.245 600.321 781.124 600.91 780.795 601.965 780.466 603.02 781.055 604.141 782.11 604.47Z"></path>
      <path d="M745.14 636.16C745.354 637.064 746.161 637.702 747.09 637.7 747.245 637.699 747.4 637.679 747.55 637.64 748.607 637.37 749.252 636.302 749 635.24 747.476 628.7 748.551 621.823 752 616.06 752.799 614.708 753.716 613.43 754.74 612.24L754.8 612.3 754.8 615.96C754.8 617.065 755.695 617.96 756.8 617.96 757.905 617.96 758.8 617.065 758.8 615.96L758.88 607.48C758.88 606.375 757.985 605.48 756.88 605.48L748.39 605.4C747.285 605.4 746.39 606.295 746.39 607.4 746.39 608.505 747.285 609.4 748.39 609.4L751.94 609.4C750.65 610.821 749.498 612.361 748.5 614 744.543 620.669 743.338 628.617 745.14 636.16Z"></path>
      <path d="M792.22 648.15C786.141 653.885 777.681 656.358 769.47 654.8L769.47 654.8 772.65 653C773.608 652.448 773.937 651.223 773.385 650.265 772.833 649.307 771.608 648.978 770.65 649.53L763.3 653.7C762.339 654.245 762.003 655.466 762.548 656.427 762.549 656.428 762.549 656.429 762.55 656.43L766.76 663.8C767.312 664.761 768.539 665.092 769.5 664.54 770.461 663.988 770.792 662.761 770.24 661.8L768.45 658.68C778.014 660.605 787.917 657.759 795 651.05 795.832 650.324 795.918 649.06 795.192 648.228 794.466 647.396 793.203 647.31 792.37 648.036 792.329 648.072 792.289 648.11 792.25 648.15Z"></path>
      <path d="M760 646.64C760 651.058 756.418 654.64 752 654.64 747.582 654.64 744 651.058 744 646.64 744 642.222 747.582 638.64 752 638.64 756.418 638.64 760 642.222 760 646.64Z"></path>
      <path d="M808.5 639.8C808.5 644.218 804.918 647.8 800.5 647.8 796.082 647.8 792.5 644.218 792.5 639.8 792.5 635.382 796.082 631.8 800.5 631.8 804.918 631.8 808.5 635.382 808.5 639.8Z"></path>
      <path d="M778.75 601.61C778.75 606.028 775.168 609.61 770.75 609.61 766.332 609.61 762.75 606.028 762.75 601.61 762.75 597.192 766.332 593.61 770.75 593.61 775.168 593.61 778.75 597.192 778.75 601.61Z"></path>
    </g>
  </symbol>
  <symbol xmlns="http://www.w3.org/2000/svg" xmlns:xlink="http://www.w3.org/1999/xlink" overflow="hidden" viewBox="0 0 96 96" id="jobs">
    <defs>
      <clipPath id="clip0">
        <rect x="296" y="341" width="96" height="96"></rect>
      </clipPath>
    </defs>
    <g clip-path="url(#clip0)" transform="translate(-296 -341)">
      <path d="M352 391.5C352 393.7 350.2 395.5 348 395.5L344 395.5C341.8 395.5 340 393.7 340 391.5L340 389.5 306 389.5 306 417.5C306 419.7 307.8 421.5 310 421.5L382 421.5C384.2 421.5 386 419.7 386 417.5L386 389.5 352 389.5 352 391.5Z"></path>
      <path d="M382 365.5 362 365.5 362 359C362 355.1 358.9 352 355 352L337 352C333.1 352 330 355.1 330 359L330 365.5 310 365.5C307.8 365.5 306 367.3 306 369.5L306 385.5 340 385.5 340 383.5 352 383.5 352 385.5 386 385.5 386 369.5C386 367.3 384.2 365.5 382 365.5M336 365.5 336 359C336 358.4 336.4 358 337 358L355 358C355.6 358 356 358.4 356 359L356 365.5 336 365.5Z"></path>
    </g>
  </symbol>
  <symbol xmlns="http://www.w3.org/2000/svg" xmlns:xlink="http://www.w3.org/1999/xlink" overflow="hidden" viewBox="0 0 96 96" id="map">
    <defs>
      <clipPath id="clip0">
        <rect x="198" y="505" width="96" height="96"></rect>
      </clipPath>
    </defs>
    <g clip-path="url(#clip0)" transform="translate(-198 -505)">
      <path d="M266 535.2C263.6 535.2 261.6 533.2 261.7 530.7 261.7 528.3 263.7 526.3 266.1 526.3 268.5 526.3 270.5 528.3 270.5 530.7 270.5 531.9 270 533 269.2 533.8 268.3 534.7 267.2 535.2 266 535.2ZM261.7 521.3C259.5 522.1 257.8 523.8 256.7 525.8 255.3 528.5 255.1 531.6 256.2 534.4L261 544.8 264.2 551.4C264.5 552.1 265.2 552.5 266 552.5 266.8 552.5 267.5 552.1 267.8 551.4L271 544.8 275.8 534.5C276.3 533.3 276.5 532 276.5 530.7 276.5 523.7 269.3 518.4 261.7 521.3Z"></path>
      <path d="M244 577.8 228 569.8 228 537.2 244 545.2 244 577.8ZM224 569.8 212 575.8 212 543.2 224 537.2 224 569.8ZM279.4 536.2 279.4 536.2 276.9 541.6 280 543.2 280 575.8 268 569.8 268 556.5 264 556.5 264 569.8 248 577.8 248 545.2 255.1 541.6 252.6 536.2 246 539.5 226 529.5 206 539.5 206 585.5 226 575.5 246 585.5 266 575.5 286 585.5 286 539.5 279.4 536.2Z"></path>
    </g>
  </symbol>
  <symbol xmlns="http://www.w3.org/2000/svg" xmlns:xlink="http://www.w3.org/1999/xlink" overflow="hidden" viewBox="0 0 96 96" id="respeto">
    <defs>
      <clipPath id="clip0">
        <rect x="742" y="462" width="96" height="96"></rect>
      </clipPath>
    </defs>
    <g clip-path="url(#clip0)" transform="translate(-742 -462)">
      <path d="M834 513C834.011 510.802 832.238 509.011 830.04 509 829.296 508.997 828.565 509.202 827.932 509.592L810.832 519.369C811.063 520.482 811.056 521.63 810.811 522.74 809.914 526.454 806.566 529.052 802.746 529L785 529 785 525 803 525C805.209 525 807 523.209 807 521 807 518.791 805.209 517 803 517L779 517C777.331 517 775.696 517.467 774.279 518.348L746 532 760 546C766.469 539.531 774.875 537 784 537L802.69 537C803.541 537 804.37 536.728 805.056 536.225L832.523 516.08C833.454 515.328 833.997 514.197 834 513Z"></path>
      <path d="M794 482.715C787.7 470.215 777 477.715 777 484.715 777 495.215 794 508.215 794 508.215 794 508.215 811 495.215 811 484.715 811 477.715 800.3 470.215 794 482.715Z"></path>
    </g>
  </symbol>
  <symbol xmlns="http://www.w3.org/2000/svg" xmlns:xlink="http://www.w3.org/1999/xlink" overflow="hidden" viewBox="0 0 96 96" id="responsabilidad">
    <defs>
      <clipPath id="clip0">
        <rect x="746" y="355" width="96" height="96"></rect>
      </clipPath>
    </defs>
    <g clip-path="url(#clip0)" transform="translate(-746 -355)">
      <path d="M805.3 392.3C801.1 392.3 797.8 388.9 797.8 384.8 797.8 380.7 801.2 377.3 805.3 377.3 809.5 377.3 812.8 380.7 812.8 384.8 812.8 388.9 809.4 392.3 805.3 392.3ZM822.2 380.1C821.8 378.7 821.3 377.4 820.6 376.2L822.2 371.5 818.6 367.9 813.9 369.5C812.7 368.8 811.4 368.3 810 367.9L807.8 363.5 802.8 363.5 800.6 367.9C799.2 368.3 797.9 368.8 796.7 369.5L792 367.9 788.4 371.5 790 376.2C789.3 377.4 788.8 378.7 788.4 380.1L784 382.3 784 387.3 788.4 389.5C788.8 390.9 789.3 392.2 790 393.4L788.4 398.1 791.9 401.6 796.6 400C797.8 400.7 799.1 401.2 800.5 401.6L802.7 406 807.7 406 809.9 401.6C811.3 401.2 812.6 400.7 813.8 400L818.5 401.6 822.1 398.1 820.5 393.4C821.2 392.2 821.8 390.8 822.2 389.5L826.6 387.3 826.6 382.3 822.2 380.1Z"></path>
      <path d="M782.7 428.7C778.5 428.7 775.2 425.3 775.2 421.2 775.2 417 778.6 413.7 782.7 413.7 786.9 413.7 790.2 417.1 790.2 421.2 790.2 425.3 786.9 428.7 782.7 428.7L782.7 428.7ZM798 412.6 799.6 407.9 796 404.3 791.3 405.9C790.1 405.2 788.7 404.7 787.4 404.3L785.2 399.9 780.2 399.9 778 404.3C776.6 404.7 775.3 405.2 774.1 405.9L769.4 404.3 765.9 407.8 767.4 412.5C766.7 413.7 766.2 415.1 765.8 416.4L761.4 418.6 761.4 423.6 765.8 425.8C766.2 427.2 766.7 428.5 767.4 429.7L765.9 434.4 769.4 437.9 774.1 436.4C775.3 437.1 776.6 437.6 778 438L780.2 442.4 785.2 442.4 787.4 438C788.8 437.6 790.1 437.1 791.3 436.4L796 438 799.5 434.4 798 429.8C798.7 428.6 799.2 427.3 799.6 425.9L804 423.7 804 418.7 799.6 416.5C799.2 415.1 798.7 413.8 798 412.6Z"></path>
    </g>
  </symbol>
  <symbol xmlns="http://www.w3.org/2000/svg" xmlns:xlink="http://www.w3.org/1999/xlink" overflow="hidden" viewBox="0 0 96 96" id="sucker-rod">
    <defs>
      <clipPath id="clip0">
        <rect x="306" y="505" width="96" height="96"></rect>
      </clipPath>
    </defs>
    <g clip-path="url(#clip0)" transform="translate(-306 -505)">
      <path d="M390 584 390 573 386.011 573 386.011 546 388.575 544.965C389.415 544.626 389.922 543.764 389.811 542.865L388.29 530.57C388.162 529.529 387.762 528.539 387.132 527.7L379.691 517.8C379.147 517.076 378.183 516.808 377.343 517.147L369.5 520.314C368.48 520.73 367.988 521.892 368.4 522.914L372.291 532.55 332 549.239 332 547 316 547 316 563 318 563 318 584 310 584 310 590 398 590 398 584ZM356.5 545.584 374.526 538.118 378.126 547.027C378.542 548.047 379.704 548.539 380.726 548.127L382.01 547.609 382.01 573 378 573 378 584 360.8 584ZM353.864 576 346.38 576 346.827 572 353.417 572ZM347.274 568 347.726 563.955 352.517 563.955 352.97 568ZM352.074 559.955 348.174 559.955 348.615 556 351.628 556ZM349.062 552 349.453 548.5 350.731 547.97 351.181 552ZM345.932 580 354.311 580 354.758 584 345.485 584ZM343.122 551.126 339.448 584 330 584 330 563 332 563 332 555.733ZM322 563 326 563 326 584 322 584Z"></path>
    </g>
  </symbol>
  <symbol xmlns="http://www.w3.org/2000/svg" xmlns:xlink="http://www.w3.org/1999/xlink" overflow="hidden" viewBox="0 0 96 96" id="tolerancia">
    <defs>
      <clipPath id="clip0">
        <rect x="963" y="475" width="96" height="96"></rect>
      </clipPath>
    </defs>
    <g clip-path="url(#clip0)" transform="translate(-963 -475)">
      <path d="M1007.9 547.4C1007.4 547.4 1006.8 547.3 1006.4 546.9 1005.6 546.2 1005.5 544.9 1006.2 544.1L1010.1 539.6C1010.8 538.8 1012.1 538.7 1012.9 539.4 1013.7 540.1 1013.8 541.4 1013.1 542.2L1009.2 546.7C1008.9 547.1 1008.4 547.3 1007.9 547.4Z"></path>
      <path d="M1001.8 545.1C1001.1 545.2 1000.5 545 999.9 544.5 998.9 543.6 998.8 542 999.7 541L1004.3 535.7C1005.2 534.7 1006.8 534.6 1007.8 535.5 1008.8 536.4 1008.9 538 1008 539L1003.4 544.3C1003 544.8 1002.4 545.1 1001.8 545.1Z"></path>
      <path d="M995.5 541.4C994.7 541.5 993.9 541.2 993.3 540.7 992.1 539.6 991.9 537.7 993 536.5L997.6 531.2C998.7 530 1000.6 529.8 1001.8 530.9 1003 532 1003.2 533.9 1002.1 535.1L997.5 540.4C997 541 996.2 541.4 995.5 541.4Z"></path>
      <path d="M988.2 537.7C987.4 537.8 986.6 537.5 986 537 984.8 535.9 984.6 534 985.7 532.8L991 526.8C992.1 525.6 994 525.4 995.2 526.5 996.4 527.6 996.6 529.5 995.5 530.7L990.2 536.7C989.6 537.3 988.9 537.6 988.2 537.7Z"></path>
      <path d="M967.6 515.7 975.3 520.4C976.2 521 977.5 520.7 978 519.7L987.3 504.3C987.9 503.4 987.6 502.1 986.6 501.6L979 496.9 967.6 515.7Z"></path>
      <path d="M1032.4 528.8 1016.3 515 1015.2 514 1008.3 521.9C1007.3 523.1 1005.9 523.8 1004.3 523.9 1004.1 523.9 1003.9 523.9 1003.8 523.9 1002.3 523.9 1000.9 523.4 999.9 522.4 997.4 520.2 997.2 516.4 999.3 513.9L1005.2 507.1C1000.6 506.5 994.7 508.9 988.6 505.9L979.9 520.3 986.7 528.2 989.3 525.2C990.2 524.1 991.6 523.5 993.1 523.5L993.1 523.5C994.3 523.5 995.5 523.9 996.4 524.7 997.5 525.6 998 526.9 998.1 528.3 998.6 528.1 999.2 528 999.8 528 1001 528 1002.2 528.4 1003.1 529.2 1004.2 530.2 1004.8 531.5 1004.8 532.9 1005.2 532.8 1005.7 532.7 1006.1 532.7L1006.1 532.7C1007.2 532.7 1008.2 533.1 1009.1 533.8 1010 534.6 1010.5 535.7 1010.6 536.9 1010.9 536.8 1011.3 536.7 1011.7 536.7L1011.7 536.7C1012.7 536.7 1013.6 537 1014.3 537.7 1015.1 538.4 1015.6 539.4 1015.7 540.4 1015.8 541.5 1015.4 542.5 1014.7 543.3L1011.3 547.2 1012.7 548.3C1013.4 548.7 1014.2 549 1015.1 548.9 1017.3 548.7 1018.9 546.8 1018.7 544.6 1018.7 544.6 1018.7 544.5 1018.7 544.5 1019 544.6 1019.4 544.6 1019.7 544.6 1021.9 544.4 1023.5 542.5 1023.3 540.3 1023.3 540.3 1023.3 540.2 1023.3 540.2 1023.6 540.3 1024 540.3 1024.3 540.3 1026.5 540.1 1028.1 538.2 1027.9 536 1027.9 535.8 1027.8 535.6 1027.8 535.4 1028.4 535.7 1029.1 535.9 1029.9 535.8 1032.1 535.6 1033.7 533.7 1033.5 531.5 1033.6 530.4 1033.1 529.5 1032.4 528.8Z"></path>
      <path d="M1054.4 515.7 1046.7 520.4C1045.8 521 1044.5 520.7 1044 519.7L1034.7 504.3C1034.1 503.4 1034.4 502.1 1035.4 501.6L1043.1 496.9 1054.4 515.7Z"></path>
      <path d="M1033.5 506.3C1025.2 509.3 1019.2 506.4 1012.5 505.1 1012.4 505.1 1012 505 1012 505 1010.8 504.9 1009.5 505.3 1008.6 506.3L1000.7 515.3C999.2 517 999.4 519.5 1001.1 520.9 1002 521.6 1003 522 1004.1 521.9 1005.1 521.8 1006.1 521.4 1006.8 520.5 1006.8 520.5 1015 511.1 1015 511.1L1033.7 527.2 1033.7 527.2 1033.7 527.2C1034.2 527.7 1034.4 527.9 1034.8 528.5L1042 520.2 1033.5 506.3Z"></path>
    </g>
  </symbol>
</svg>