<svg width="79" height="79" xmlns="http://www.w3.org/2000/svg" xmlns:xlink="http://www.w3.org/1999/xlink" overflow="hidden"><defs><clipPath id="clip0"><rect x="198" y="331" width="79" height="79"/></clipPath></defs><g clip-path="url(#clip0)" transform="translate(-198 -331)"><path d="M272.885 341.583C268.376 340.924 264.944 342.406 263.183 346.051 261.175 350.166 262.122 354.28 263.595 358.601 264.656 362.46 266.302 368.673 266.302 371.734 266.302 375.232 264.245 377.906 260.13 377.495 255.193 376.993 250.362 370.911 241.203 370.911 234.62 370.911 232.151 373.38 227.214 377.495 222.276 381.609 217.339 387.37 213.224 388.193 209.109 389.016 206.369 388.259 204.995 385.724 203.76 383.436 203.349 380.786 204.995 375.849 205.696 373.828 206.521 371.852 207.464 369.932 207.599 369.665 207.492 369.338 207.225 369.202 206.988 369.082 206.699 369.151 206.542 369.364 205.628 370.5 204.748 371.693 204.172 372.557 202.526 375.026 200.403 379.346 200.88 384.078 201.3 388.25 203.349 390.661 206.641 392.307 209.932 393.953 218.161 394.776 224.745 390.661L225.156 390.661 225.156 397.656C225.156 399.02 226.262 400.125 227.625 400.125 228.988 400.125 230.094 399.02 230.094 397.656L230.094 390.661 230.209 390.661C234.449 391.893 238.846 392.494 243.26 392.447 244.676 392.447 246.05 392.381 247.375 392.283L247.375 397.656C247.375 399.02 248.48 400.125 249.844 400.125 251.207 400.125 252.312 399.02 252.312 397.656L252.312 391.641C252.88 391.534 253.423 391.419 253.958 391.295L253.958 397.656C253.958 399.02 255.064 400.125 256.427 400.125 257.791 400.125 258.896 399.02 258.896 397.656L258.896 389.97C262.138 389.04 267.306 387.032 270.005 383.255 273.544 378.318 270.713 368.904 269.182 364.748 268.68 363.102 268.096 361.456 267.536 359.901 265.833 355.202 264.36 351.137 266.138 347.458 266.549 346.635 267.948 344.784 272.351 345.623 273.474 345.798 274.532 345.046 274.737 343.928 274.82 342.785 274.017 341.767 272.885 341.583Z" fill="#0070C0"/><path d="M231.74 397.656C231.74 399.02 232.845 400.125 234.208 400.125 235.572 400.125 236.677 399.02 236.677 397.656L236.677 393.682C235.015 393.478 233.367 393.179 231.74 392.785Z" fill="#0070C0"/></g></svg>